<mxfile host="app.diagrams.net" modified="2021-02-25T04:10:14.790Z" agent="5.0 (Windows)" etag="vfttK7awbybt3oNCFlxw" version="14.4.3" type="github">
  <diagram id="C5RBs43oDa-KdzZeNtuy" name="Page-1">
    <mxGraphModel dx="1384" dy="763" grid="1" gridSize="10" guides="1" tooltips="1" connect="1" arrows="1" fold="1" page="1" pageScale="1" pageWidth="827" pageHeight="1169" math="0" shadow="0">
      <root>
        <mxCell id="WIyWlLk6GJQsqaUBKTNV-0" />
        <mxCell id="WIyWlLk6GJQsqaUBKTNV-1" parent="WIyWlLk6GJQsqaUBKTNV-0" />
        <mxCell id="b9Cq8-wCvsMSWgGuS_vO-0" value="" style="rounded=0;whiteSpace=wrap;html=1;" vertex="1" parent="WIyWlLk6GJQsqaUBKTNV-1">
          <mxGeometry x="37" y="40" width="793" height="530" as="geometry" />
        </mxCell>
        <mxCell id="b9Cq8-wCvsMSWgGuS_vO-1" value="&lt;div style=&quot;font-size: 14px&quot;&gt;&lt;h1&gt;Covid Tracker&lt;/h1&gt;&lt;/div&gt;&lt;div style=&quot;font-size: 14px&quot;&gt;&lt;br style=&quot;font-size: 14px&quot;&gt;&lt;/div&gt;" style="text;html=1;resizable=0;autosize=1;align=center;verticalAlign=middle;points=[];fillColor=none;strokeColor=none;rounded=0;horizontal=1;fontSize=14;fontStyle=1;fontFamily=Courier New;" vertex="1" parent="WIyWlLk6GJQsqaUBKTNV-1">
          <mxGeometry x="110" y="70" width="230" height="80" as="geometry" />
        </mxCell>
        <mxCell id="b9Cq8-wCvsMSWgGuS_vO-3" value="" style="rounded=1;whiteSpace=wrap;html=1;fontFamily=Courier New;fontSize=14;fontStyle=1;" vertex="1" parent="WIyWlLk6GJQsqaUBKTNV-1">
          <mxGeometry x="385" y="80" width="120" height="60" as="geometry" />
        </mxCell>
        <mxCell id="b9Cq8-wCvsMSWgGuS_vO-4" value="WorldWide" style="text;html=1;resizable=0;autosize=1;align=center;verticalAlign=middle;points=[];fillColor=none;strokeColor=none;rounded=0;fontFamily=Courier New;fontSize=14;" vertex="1" parent="WIyWlLk6GJQsqaUBKTNV-1">
          <mxGeometry x="400" y="90" width="90" height="20" as="geometry" />
        </mxCell>
        <mxCell id="b9Cq8-wCvsMSWgGuS_vO-5" value="" style="rounded=1;whiteSpace=wrap;html=1;strokeColor=#000000;fontFamily=Courier New;fontSize=14;" vertex="1" parent="WIyWlLk6GJQsqaUBKTNV-1">
          <mxGeometry x="80" y="180" width="120" height="60" as="geometry" />
        </mxCell>
        <mxCell id="b9Cq8-wCvsMSWgGuS_vO-6" value="" style="rounded=1;whiteSpace=wrap;html=1;strokeColor=#000000;fontFamily=Courier New;fontSize=14;" vertex="1" parent="WIyWlLk6GJQsqaUBKTNV-1">
          <mxGeometry x="230" y="180" width="120" height="60" as="geometry" />
        </mxCell>
        <mxCell id="b9Cq8-wCvsMSWgGuS_vO-7" value="" style="rounded=1;whiteSpace=wrap;html=1;strokeColor=#000000;fontFamily=Courier New;fontSize=14;" vertex="1" parent="WIyWlLk6GJQsqaUBKTNV-1">
          <mxGeometry x="390" y="180" width="120" height="60" as="geometry" />
        </mxCell>
        <mxCell id="b9Cq8-wCvsMSWgGuS_vO-8" value="" style="rounded=0;whiteSpace=wrap;html=1;strokeColor=#000000;fontFamily=Courier New;fontSize=14;" vertex="1" parent="WIyWlLk6GJQsqaUBKTNV-1">
          <mxGeometry x="80" y="260" width="430" height="230" as="geometry" />
        </mxCell>
        <mxCell id="b9Cq8-wCvsMSWgGuS_vO-9" value="" style="html=1;verticalLabelPosition=bottom;align=center;labelBackgroundColor=#ffffff;verticalAlign=top;strokeWidth=2;strokeColor=#0080F0;shadow=0;dashed=0;shape=mxgraph.ios7.icons.map;fontFamily=Courier New;fontSize=14;" vertex="1" parent="WIyWlLk6GJQsqaUBKTNV-1">
          <mxGeometry x="210" y="330" width="130" height="80" as="geometry" />
        </mxCell>
        <mxCell id="b9Cq8-wCvsMSWgGuS_vO-10" value="" style="rounded=1;whiteSpace=wrap;html=1;strokeColor=#000000;fontFamily=Courier New;fontSize=14;" vertex="1" parent="WIyWlLk6GJQsqaUBKTNV-1">
          <mxGeometry x="560" y="80" width="200" height="410" as="geometry" />
        </mxCell>
        <mxCell id="b9Cq8-wCvsMSWgGuS_vO-11" value="Cases By Country" style="text;html=1;resizable=0;autosize=1;align=center;verticalAlign=middle;points=[];fillColor=none;strokeColor=none;rounded=0;fontFamily=Courier New;fontSize=14;" vertex="1" parent="WIyWlLk6GJQsqaUBKTNV-1">
          <mxGeometry x="590" y="90" width="140" height="20" as="geometry" />
        </mxCell>
        <mxCell id="b9Cq8-wCvsMSWgGuS_vO-12" value="" style="shape=image;html=1;verticalAlign=top;verticalLabelPosition=bottom;labelBackgroundColor=#ffffff;imageAspect=0;aspect=fixed;image=https://cdn4.iconfinder.com/data/icons/iphone-calculator-shopping-report/128/barChart.png;strokeColor=#000000;fontFamily=Courier New;fontSize=14;" vertex="1" parent="WIyWlLk6GJQsqaUBKTNV-1">
          <mxGeometry x="596" y="340" width="128" height="128" as="geometry" />
        </mxCell>
        <mxCell id="b9Cq8-wCvsMSWgGuS_vO-13" value="Cases By Country" style="text;html=1;resizable=0;autosize=1;align=center;verticalAlign=middle;points=[];fillColor=none;strokeColor=none;rounded=0;fontFamily=Courier New;fontSize=14;" vertex="1" parent="WIyWlLk6GJQsqaUBKTNV-1">
          <mxGeometry x="590" y="90" width="140" height="20" as="geometry" />
        </mxCell>
        <mxCell id="b9Cq8-wCvsMSWgGuS_vO-14" value="WorldwideNew Cases" style="text;html=1;resizable=0;autosize=1;align=center;verticalAlign=middle;points=[];fillColor=none;strokeColor=none;rounded=0;fontFamily=Courier New;fontSize=14;" vertex="1" parent="WIyWlLk6GJQsqaUBKTNV-1">
          <mxGeometry x="580" y="320" width="160" height="20" as="geometry" />
        </mxCell>
        <mxCell id="b9Cq8-wCvsMSWgGuS_vO-15" value="" style="shape=table;html=1;whiteSpace=wrap;startSize=0;container=1;collapsible=0;childLayout=tableLayout;strokeColor=#000000;fontFamily=Courier New;fontSize=14;" vertex="1" parent="WIyWlLk6GJQsqaUBKTNV-1">
          <mxGeometry x="570" y="120" width="180" height="190" as="geometry" />
        </mxCell>
        <mxCell id="b9Cq8-wCvsMSWgGuS_vO-16" value="" style="shape=partialRectangle;html=1;whiteSpace=wrap;collapsible=0;dropTarget=0;pointerEvents=0;fillColor=none;top=0;left=0;bottom=0;right=0;points=[[0,0.5],[1,0.5]];portConstraint=eastwest;" vertex="1" parent="b9Cq8-wCvsMSWgGuS_vO-15">
          <mxGeometry width="180" height="63" as="geometry" />
        </mxCell>
        <mxCell id="b9Cq8-wCvsMSWgGuS_vO-17" value="" style="shape=partialRectangle;html=1;whiteSpace=wrap;connectable=0;fillColor=none;top=0;left=0;bottom=0;right=0;overflow=hidden;" vertex="1" parent="b9Cq8-wCvsMSWgGuS_vO-16">
          <mxGeometry width="60" height="63" as="geometry" />
        </mxCell>
        <mxCell id="b9Cq8-wCvsMSWgGuS_vO-18" value="" style="shape=partialRectangle;html=1;whiteSpace=wrap;connectable=0;fillColor=none;top=0;left=0;bottom=0;right=0;overflow=hidden;" vertex="1" parent="b9Cq8-wCvsMSWgGuS_vO-16">
          <mxGeometry x="60" width="60" height="63" as="geometry" />
        </mxCell>
        <mxCell id="b9Cq8-wCvsMSWgGuS_vO-19" value="" style="shape=partialRectangle;html=1;whiteSpace=wrap;connectable=0;fillColor=none;top=0;left=0;bottom=0;right=0;overflow=hidden;" vertex="1" parent="b9Cq8-wCvsMSWgGuS_vO-16">
          <mxGeometry x="120" width="60" height="63" as="geometry" />
        </mxCell>
        <mxCell id="b9Cq8-wCvsMSWgGuS_vO-20" value="" style="shape=partialRectangle;html=1;whiteSpace=wrap;collapsible=0;dropTarget=0;pointerEvents=0;fillColor=none;top=0;left=0;bottom=0;right=0;points=[[0,0.5],[1,0.5]];portConstraint=eastwest;" vertex="1" parent="b9Cq8-wCvsMSWgGuS_vO-15">
          <mxGeometry y="63" width="180" height="64" as="geometry" />
        </mxCell>
        <mxCell id="b9Cq8-wCvsMSWgGuS_vO-21" value="" style="shape=partialRectangle;html=1;whiteSpace=wrap;connectable=0;fillColor=none;top=0;left=0;bottom=0;right=0;overflow=hidden;" vertex="1" parent="b9Cq8-wCvsMSWgGuS_vO-20">
          <mxGeometry width="60" height="64" as="geometry" />
        </mxCell>
        <mxCell id="b9Cq8-wCvsMSWgGuS_vO-22" value="" style="shape=partialRectangle;html=1;whiteSpace=wrap;connectable=0;fillColor=none;top=0;left=0;bottom=0;right=0;overflow=hidden;" vertex="1" parent="b9Cq8-wCvsMSWgGuS_vO-20">
          <mxGeometry x="60" width="60" height="64" as="geometry" />
        </mxCell>
        <mxCell id="b9Cq8-wCvsMSWgGuS_vO-23" value="" style="shape=partialRectangle;html=1;whiteSpace=wrap;connectable=0;fillColor=none;top=0;left=0;bottom=0;right=0;overflow=hidden;" vertex="1" parent="b9Cq8-wCvsMSWgGuS_vO-20">
          <mxGeometry x="120" width="60" height="64" as="geometry" />
        </mxCell>
        <mxCell id="b9Cq8-wCvsMSWgGuS_vO-24" value="" style="shape=partialRectangle;html=1;whiteSpace=wrap;collapsible=0;dropTarget=0;pointerEvents=0;fillColor=none;top=0;left=0;bottom=0;right=0;points=[[0,0.5],[1,0.5]];portConstraint=eastwest;" vertex="1" parent="b9Cq8-wCvsMSWgGuS_vO-15">
          <mxGeometry y="127" width="180" height="63" as="geometry" />
        </mxCell>
        <mxCell id="b9Cq8-wCvsMSWgGuS_vO-25" value="" style="shape=partialRectangle;html=1;whiteSpace=wrap;connectable=0;fillColor=none;top=0;left=0;bottom=0;right=0;overflow=hidden;" vertex="1" parent="b9Cq8-wCvsMSWgGuS_vO-24">
          <mxGeometry width="60" height="63" as="geometry" />
        </mxCell>
        <mxCell id="b9Cq8-wCvsMSWgGuS_vO-26" value="" style="shape=partialRectangle;html=1;whiteSpace=wrap;connectable=0;fillColor=none;top=0;left=0;bottom=0;right=0;overflow=hidden;" vertex="1" parent="b9Cq8-wCvsMSWgGuS_vO-24">
          <mxGeometry x="60" width="60" height="63" as="geometry" />
        </mxCell>
        <mxCell id="b9Cq8-wCvsMSWgGuS_vO-27" value="" style="shape=partialRectangle;html=1;whiteSpace=wrap;connectable=0;fillColor=none;top=0;left=0;bottom=0;right=0;overflow=hidden;" vertex="1" parent="b9Cq8-wCvsMSWgGuS_vO-24">
          <mxGeometry x="120" width="60" height="63" as="geometry" />
        </mxCell>
      </root>
    </mxGraphModel>
  </diagram>
</mxfile>
